<svg width="36"
     height="36"
     viewBox="0 0 36 36"
     fill="none"
     xmlns="http://www.w3.org/2000/svg">
    <g clip-path="url(#clip0_3_27)">
        <path d="M27 12H15C13.3431 12 12 13.3431 12 15V27C12 28.6568 13.3431 30 15 30H27C28.6569 30 30 28.6568 30 27V15C30 13.3431 28.6569 12 27 12Z"
              stroke="#111831"
              stroke-width="2.25"
              stroke-linecap="round"
              stroke-linejoin="round" />
        <path d="M24 12V9.00002C24 8.20437 23.6839 7.4413 23.1213 6.87869C22.5587 6.31609 21.7956 6.00002 21 6.00002H9C8.20435 6.00002 7.44129 6.31609 6.87868 6.87869C6.31607 7.4413 6 8.20437 6 9.00002V21C6 21.7957 6.31607 22.5587 6.87868 23.1213C7.44129 23.6839 8.20435 24 9 24H12"
              stroke="#111831"
              stroke-width="2.25"
              stroke-linecap="round"
              stroke-linejoin="round" />
    </g>
    <defs>
        <clipPath id="clip0_3_27">
            <rect width="36"
                  height="36"
                  fill="white" />
        </clipPath>
    </defs>
</svg>